<svg version="1.2" xmlns="http://www.w3.org/2000/svg" viewBox="0 0 1552 1114" width="1552" height="1114">
	<title>PKN</title>
	<style>
		.s0 { fill: #ffffff } 
	</style>
	<path id="path1" class="s0" d="m559.7 0.8c-138.4 0-257.2 101.9-276.5 240h596.3c52.2 0 103.1 20.9 139.8 57.5l196.2 196.1c83.4 83.5 236.8 94.9 336-4.1l-340.2-340.8-19.8-21.1c-83.3-82-194.9-128.3-313.7-128.3"/>
	<path id="path2" class="s0" d="m239.9 280.8c-131.2 0-239.9 108.7-239.9 241.9 0 50.9 15.7 91.8 42.7 135.4-10.3-70.5 45.6-135.4 117.5-135.4h112.9c42.5 0 83.3 16.8 113.4 46.9l322.1 320.9 223.1 223.1c93.1-92.9 93.1-247.2 0-340.1l-223.1-223.4-148.2-148c-76.2-76.1-178.3-120-285.5-120"/>
	<path id="path3" fill-rule="evenodd" class="s0" d="m808.3 280.8c10.1 18.7 15.5 39.8 15.5 59.5 0 64.7-52.3 117-115.8 117-63.8 0-115.9-52.3-115.9-117 0-19.7 5.4-40.8 16.8-59.5"/>
</svg>